# AST/ASF file generated using VICON BodyLanguage
# -----------------------------------------------
:version 1.10
:name VICON
:units
  mass 1.0
  length 0.45
  angle deg
:documentation
   .ast/.asf automatically generated from VICON data using
   VICON BodyBuilder and BodyLanguage model FoxedUp or BRILLIANT.MOD
:root
   order TX TY TZ RX RY RZ
   axis XYZ
   position 0 0 0  
   orientation 0 -0 0 
:bonedata
  begin
     id 1 
     name lhipjoint
     direction 0.432694 -0.693742 0.575759 
     length 2.19277 
     axis 0 -0 0  XYZ
  end
  begin
     id 2 
     name lfemur
     direction 0.34202 -0.939693 0  
     length 6.69022  
     axis 0 -0 20  XYZ
    dof rx ry rz
    limits (-160.0 20.0)
           (-70.0 70.0)
           (-60.0 70.0)
  end
  begin
     id 3 
     name ltibia
     direction 0.34202 -0.939693 0   
     length 6.50337   
     axis 0 -0 20   XYZ
    dof rx
    limits (-10.0 170.0)
  end
  begin
     id 4 
     name lfoot
     direction 0.158999 -0.435969 0.885805   
     length 2.70564   
     axis -90 -1.13533e-015 20   XYZ
    dof rx rz
    limits (-45.0 90.0)
           (-70.0 20.0)
  end
  begin
     id 5 
     name ltoes
     direction -0.00592919 0.00964381 0.999936   
     length 1.29929   
     axis -90 -1.13533e-015 20   XYZ
    dof rx
    limits (-90.0 20.0)
  end
  begin
     id 6 
     name rhipjoint
     direction -0.414359 -0.700339 0.581234   
     length 2.17212  
     axis 0 -0 0  XYZ 
  end
  begin
     id 7 
     name rfemur
     direction -0.34202 -0.939693 0   
     length 7.17659   
     axis 0 -0 -20   XYZ
    dof rx ry rz
    limits (-160.0 20.0)
           (-70.0 70.0)
           (-70.0 60.0)
  end
  begin
     id 8 
     name rtibia
     direction -0.34202 -0.939693 0   
     length 6.36669   
     axis 0 -0 -20   XYZ
    dof rx
    limits (-10.0 170.0)
 end
 begin
     id 9 
     name rfoot
     direction -0.137064 -0.37658 0.916188   
     length 2.22351  
     axis -90 1.13533e-015 -20   XYZ
    dof rx rz
    limits (-45.0 90.0)
           (-20.0 70.0)
  end
  begin
     id 10 
     name rtoes
     direction -0.000784077 -0.00289101 0.999996   
     length 1.09522   
     axis -90 1.13533e-015 -20   XYZ
    dof rx
    limits (-90.0 20.0)
  end
  begin
     id 11 
     name lowerback
     direction -0.0176242 0.984912 -0.172157   
     length 1.65301   
     axis 0 -0 0   XYZ
    dof rx ry rz
    limits (-20.0 45.0)
           (-30.0 30.0)
           (-30.0 30.0)
  end
  begin
     id 12 
     name upperback
     direction -0.00218128 0.998776 -0.0494072   
     length 1.67776   
     axis 0 -0 0   XYZ
    dof rx ry rz
    limits (-20.0 45.0)
           (-30.0 30.0)
           (-30.0 30.0)
  end
  begin
     id 13 
     name thorax
     direction 0.00544186 0.999658 0.0255711   
     length 1.72293   
     axis 0 -0 0   XYZ
    dof rx ry rz
    limits (-20.0 45.0)
           (-30.0 30.0)
           (-30.0 30.0)
  end
  begin
     id 14 
     name lowerneck
     direction -0.105325 0.983841 0.144785   
     length 2.14226   
     axis 0 -0 0   XYZ
    dof rx ry rz
    limits (-20.0 45.0)
           (-30.0 30.0)
           (-30.0 30.0)
  end
  begin
     id 15 
     name upperneck
     direction 0.0547957 0.988053 -0.144041   
     length 2.17508   
     axis 0 -0 0   XYZ
    dof rx ry rz
    limits (-20.0 45.0)
           (-30.0 30.0)
           (-30.0 30.0)
  end
  begin
     id 16
     name head
     direction 0.0247488 0.997534 -0.0656813  
     length 2.20048  
     axis 0 -0 0   XYZ
    dof rx ry rz
    limits (-20.0 45.0)
           (-30.0 30.0)
           (-30.0 30.0)
  end
  begin
     id 17 
     name lclavicle
     direction 0.820559 0.567247 -0.0701026  
     length 4.09615  
     axis 0 -0 0   XYZ
    dof ry rz
    limits (-20.0 10.0)
           (0.0 20.0)
  end
  begin
     id 18 
     name lhumerus
     direction 0.999977 -0.0067566 -9.96392e-005   
     length 4.59333   
     axis -180 -30 -90   XYZ
    dof rx ry rz
    limits (-60.0 90.0)
           (-90.0 90.0)
           (-90.0 90.0)
  end
  begin
     id 19
     name lradius
     direction 1 -4.48982e-011 -2.53425e-027   
     length 2.81151   
     axis -180 -30 -90   XYZ
    dof rx
    limits (-10.0 170.0)
  end
  begin
     id 20
     name lwrist
     direction 1 -4.48939e-011 -7.39254e-028   
     length 1.40576   
     axis 2.56395e-016 90 90   XYZ
    dof ry
    limits (-180.0 0.0)
 end
  begin
     id 21 
     name lhand
     direction 1 -4.48939e-011 -1.47851e-027   
     length 0.895651   
     axis 9.43423e-016 90 90   XYZ
    dof rx rz
    limits (-90.0 90.0)
           (-45.0 45.0)
  end
  begin
     id 22 
     name lfingers
     direction 1 -4.48978e-011 -2.95702e-027   
     length 0.722097   
     axis 1.88685e-015 90 90   XYZ
    dof rx
    limits (0.0 90.0)
  end
  begin
     id 23
     name lthumb
     direction 0.707107 -6.34931e-011 0.707107   
     length 1.03679   
     axis -90 45 -9.86935e-015   XYZ
    dof rx rz
    limits (-45.0 45.0)
           (-45.0 45.0)
  end
  begin
     id 24 
     name rclavicle
     direction -0.831414 0.553102 -0.0531864   
     length 4.24872  
     axis 0 -0 0   XYZ 
    dof ry rz
    limits (-10.0 20.0)
           (-20.0 0.0)
  end
  begin
     id 25 
     name rhumerus
     direction -0.999916 -0.000939607 0.0129331  
     length 4.74834   
     axis -180 30 90   XYZ
    dof rx ry rz
    limits (-90.0 60.0)
           (-90.0 90.0)
           (-90.0 90.0)
  end
  begin
     id 26 
     name rradius
     direction -1 -4.48956e-011 -1.31752e-027   
     length 2.79907   
     axis -180 30 90   XYZ
    dof rx
    limits (-10.0 170.0)
  end
  begin
     id 27 
     name rwrist
     direction -1 -4.4897e-011 -7.39254e-028   
     length 1.39954   
     axis 2.56395e-016 -90 -90   XYZ
    dof ry
    limits (-180.0 0.0)
  end
  begin
     id 28
     name rhand
     direction -0.999997 -0.00250697 0.000800838   
     length 0.953304   
     axis 9.43423e-016 -90 -90   XYZ
    dof rx rz
    limits (-90.0 90.0)
           (-45.0 45.0)
  end
  begin
     id 29
     name rfingers
     direction -1 -4.48954e-011 -2.95702e-027   
     length 0.763342   
     axis 1.88685e-015 -90 -90   XYZ
    dof rx
    limits (0.0 90.0)
  end
  begin
     id 30
     name rthumb
     direction -0.709701 -0.00217037 0.7045   
     length 1.10115   
     axis -90 -45 9.86935e-015   XYZ
    dof rx rz
    limits (-45.0 45.0)
           (-45.0 45.0)
  end
:hierarchy
  begin
    root lhipjoint rhipjoint lowerback
    lhipjoint lfemur
    lfemur ltibia
    ltibia lfoot
    lfoot ltoes
    rhipjoint rfemur
    rfemur rtibia
    rtibia rfoot
    rfoot rtoes
    lowerback upperback
    upperback thorax
    thorax lowerneck lclavicle rclavicle
    lowerneck upperneck
    upperneck head
    lclavicle lhumerus
    lhumerus lradius
    lradius lwrist
    lwrist lhand lthumb
    lhand lfingers
    rclavicle rhumerus
    rhumerus rradius
    rradius rwrist
    rwrist rhand rthumb
    rhand rfingers
  end

#!OML:ASF G:\ViconDB\ViconDB\414\test\team2\shane.ASF
:FULLY-SPECIFIED
:DEGREES
17
root 3.70682 11.9127 -20.1266 15.598 -1.11667 -2.0694
lowerback 57.6053 -10.0379 -19.9469
upperback -11.5854 -50.042 -14.5418
thorax -64.3552 4.42808 33.0656
lowerneck 59.296 -31.7895 69.5029
upperneck -11.7018 10.6168 -15.2864
head -6.67379 4.18662 -13.643
rclavicle -2.8625e-014 -2.54444e-014
rhumerus -82.4976 37.0712 164.148
rradius 33.2853
rwrist -46.4453
rhand -31.8634 -31.8506
rfingers 7.12502
rthumb -5.11687 -61.7688
lclavicle -2.8625e-014 -2.54444e-014
lhumerus -138.89 -44.1265 108.638
lradius 49.2661
lwrist 43.0879
lhand -51.9848 22.7478
lfingers 7.12502
lthumb -24.493 51.2016
rfemur -74.8005 -32.3757 25.7002
rtibia 111.796
rfoot -41.0909 -6.34522
rtoes -19.3146
lfemur -70.0738 25.0498 -14.6623
ltibia 109.189
lfoot -51.1005 0.539405
ltoes -18.281
18
root 3.70682 11.9127 -20.1266 15.598 -1.11667 -2.0694
lowerback 57.6053 -10.0379 -19.9469
upperback -11.5854 -50.042 -14.5418
thorax -64.3552 4.42808 33.0656
lowerneck 59.296 -31.7895 69.5029
upperneck -11.7018 10.6168 -15.2864
head -6.67379 4.18662 -13.643
rclavicle -2.8625e-014 -2.54444e-014
rhumerus -82.4976 37.0712 164.148
rradius 33.2853
rwrist -46.4453
rhand -31.8634 -31.8506
rfingers 7.12502
rthumb -5.11687 -61.7688
lclavicle -2.8625e-014 -2.54444e-014
lhumerus -138.89 -44.1265 108.638
lradius 49.2661
lwrist 43.0879
lhand -51.9848 22.7478
lfingers 7.12502
lthumb -24.493 51.2016
rfemur -74.8005 -32.3757 25.7002
rtibia 111.796
rfoot -41.0909 -6.34522
rtoes -19.3146
lfemur -70.0738 25.0498 -14.6623
ltibia 109.189
lfoot -51.1005 0.539405
ltoes -18.281
19
root 3.72893 12.2516 -20.0536 13.3496 -1.2305 -2.32379
lowerback 57.6053 -10.0379 -19.9469
upperback -11.5854 -50.042 -14.5418
thorax -64.3552 4.42808 33.0656
lowerneck 59.296 -31.7895 69.5029
upperneck -11.7018 10.6168 -15.2864
head -6.67379 4.18662 -13.643
rclavicle -2.8625e-014 -2.54444e-014
rhumerus -82.4976 37.0712 164.148
rradius 33.2853
rwrist -46.4453
rhand -31.8634 -31.8506
rfingers 7.12502
rthumb -5.11687 -61.7688
lclavicle -2.8625e-014 -2.54444e-014
lhumerus -138.89 -44.1265 108.638
lradius 49.2661
lwrist 43.0879
lhand -51.9848 22.7478
lfingers 7.12502
lthumb -24.493 51.2016
rfemur -69.0375 -31.2514 23.4815
rtibia 108.307
rfoot -39.9275 -6.94187
rtoes -19.4461
lfemur -64.9675 23.9033 -13.238
ltibia 105.874
lfoot -49.8685 1.49896
ltoes -18.4727
20
root 3.73732 12.4322 -20.0118 12.1659 -1.38598 -2.33882
lowerback 57.6053 -10.0379 -19.9469
upperback -11.5854 -50.042 -14.5418
thorax -64.3552 4.42808 33.0656
lowerneck 59.296 -31.7895 69.5029
upperneck -11.7018 10.6168 -15.2864
head -6.67379 4.18662 -13.643
rclavicle -2.8625e-014 -2.54444e-014
rhumerus -82.4976 37.0712 164.148
rradius 33.2853
rwrist -46.4453
rhand -31.8634 -31.8506
rfingers 7.12502
rthumb -5.11687 -61.7688
lclavicle -2.8625e-014 -2.54444e-014
lhumerus -138.89 -44.1265 108.638
lradius 49.2661
lwrist 43.0879
lhand -51.9848 22.7478
lfingers 7.12502
lthumb -24.493 51.2016
rfemur -65.8775 -30.0082 22.1184
rtibia 106.385
rfoot -39.3274 -7.60339
rtoes -19.0831
lfemur -62.129 23.2324 -12.5802
ltibia 103.938
lfoot -49.2892 1.81271
ltoes -18.5014
21
root 3.73998 12.6111 -19.9644 10.9826 -1.53716 -2.37148
lowerback 57.6053 -10.0379 -19.9469
upperback -11.5854 -50.042 -14.5418
thorax -64.3552 4.42808 33.0656
lowerneck 59.296 -31.7895 69.5029
upperneck -11.7018 10.6168 -15.2864
head -6.67379 4.18662 -13.643
rclavicle -2.8625e-014 -2.54444e-014
rhumerus -82.4976 37.0712 164.148
rradius 33.2853
rwrist -46.4453
rhand -31.8634 -31.8506
rfingers 7.12502
rthumb -5.11687 -61.7688
lclavicle -2.8625e-014 -2.54444e-014
lhumerus -138.89 -44.1265 108.638
lradius 49.2661
lwrist 43.0879
lhand -51.9848 22.7478
lfingers 7.12502
lthumb -24.493 51.2016
rfemur -62.9671 -29.583 21.2517
rtibia 104.389
rfoot -38.7985 -7.88512
rtoes -18.9212
lfemur -59.3042 22.6864 -11.945
ltibia 101.884
lfoot -48.6685 2.11316
ltoes -18.4383
22
root 3.74654 12.799 -19.9109 9.96295 -1.36927 -2.42122
lowerback 57.6053 -10.0379 -19.9469
upperback -11.5854 -50.042 -14.5418
thorax -64.3552 4.42808 33.0656
lowerneck 59.296 -31.7895 69.5029
upperneck -11.7018 10.6168 -15.2864
head -6.67379 4.18662 -13.643
rclavicle -2.8625e-014 -2.54444e-014
rhumerus -82.4976 37.0712 164.148
rradius 33.2853
rwrist -46.4453
rhand -31.8634 -31.8506
rfingers 7.12502
rthumb -5.11687 -61.7688
lclavicle -2.8625e-014 -2.54444e-014
lhumerus -138.89 -44.1265 108.638
lradius 49.2661
lwrist 43.0879
lhand -51.9848 22.7478
lfingers 7.12502
lthumb -24.493 51.2016
rfemur -60.1217 -29.3535 20.5148
rtibia 102.261
rfoot -38.2976 -8.16489
rtoes -18.8644
lfemur -56.6066 21.7304 -11.3184
ltibia 99.7261
lfoot -48.0902 2.34488
ltoes -18.4648
23
root 3.74829 12.9908 -19.8495 9.11233 -1.42442 -2.55819
lowerback 57.6053 -10.0379 -19.9469
upperback -11.5854 -50.042 -14.5418
thorax -64.3552 4.42808 33.0656
lowerneck 59.296 -31.7895 69.5029
upperneck -11.7018 10.6168 -15.2864
head -6.67379 4.18662 -13.643
rclavicle -2.8625e-014 -2.54444e-014
rhumerus -82.4976 37.0712 164.148
rradius 33.2853
rwrist -46.4453
rhand -31.8634 -31.8506
rfingers 7.12502
rthumb -5.11687 -61.7688
lclavicle -2.8625e-014 -2.54444e-014
lhumerus -138.89 -44.1265 108.638
lradius 49.2661
lwrist 43.0879
lhand -51.9848 22.7478
lfingers 7.12502
lthumb -24.493 51.2016
rfemur -57.4214 -28.8452 19.9055
rtibia 99.9894
rfoot -37.8008 -8.22727
rtoes -18.7365
lfemur -54.0757 21.3587 -10.8006
ltibia 97.4418
lfoot -47.4748 2.54367
ltoes -18.3322
